<?xml version="1.0" encoding="UTF-8"?>
<svg id="Layer_1" xmlns="http://www.w3.org/2000/svg" version="1.1" viewBox="0 0 100 100">
  <!-- Generator: Adobe Illustrator 29.4.0, SVG Export Plug-In . SVG Version: 2.1.0 Build 152)  -->
  <defs>
    <style>
      .st0 {
        fill: #010101;
      }
    </style>
  </defs>
  <path class="st0" d="M58.62,73.51l4.38-.2c6.73,0,12.49-5.27,12.49-12,0-3.26-1.29-6.23-3.39-8.42,4.98-2.22,8.46-7.2,8.46-13,0-7.86-6.39-14.25-14.25-14.25-6.46,0-11.9,4.33-13.64,10.24-2.32-1.02-4.89-1.6-7.58-1.6-9.03,0-16.6,6.37-18.47,14.85-6.6.14-11.94,5.55-11.94,12.18s5.47,12.2,12.2,12.2h7.6M38.48,73.51h16.14M63.29,69.51H26.88c-4.52,0-8.2-3.68-8.2-8.2,0-4.28,3.3-7.8,7.49-8.16,0,.02,0,.03,0,.05v2.92c0,1.1.9,2,2,2s2-.9,2-2v-2.92c0-8.23,6.69-14.92,14.92-14.92s14.92,6.69,14.92,14.92v.84h0s0,.05,0,.07v2c0,1.1.9,2,2,2s2-.9,2-2v-2.92s0-.03,0-.05c4.19.36,7.49,3.88,7.49,8.16,0,4.52-3.68,8.2-8.2,8.2ZM67.85,50.02c-1.33-.54-2.78-.86-4.29-.89-1-4.56-3.66-8.49-7.3-11.17.91-4.73,5.07-8.32,10.06-8.32,5.65,0,10.25,4.6,10.25,10.25,0,5.13-3.79,9.38-8.72,10.12Z"/>
  <path class="st0" d="M66.31,22.73c1.1,0,2-.9,2-2v-5.83c0-1.1-.9-2-2-2s-2,.9-2,2v5.83c0,1.1.9,2,2,2Z"/>
  <path class="st0" d="M91.32,37.89h-5.83c-1.1,0-2,.9-2,2s.9,2,2,2h5.83c1.1,0,2-.9,2-2s-.9-2-2-2Z"/>
  <path class="st0" d="M81.28,27.75l4.12-4.12c.78-.78.78-2.05,0-2.83-.78-.78-2.05-.78-2.83,0l-4.12,4.13c-.78.78-.78,2.05,0,2.83s2.05.78,2.83,0Z"/>
  <path class="st0" d="M81.28,52.03c-.78-.78-2.05-.78-2.83,0-.78.78-.78,2.05,0,2.83l4.12,4.12c.78.78,2.05.78,2.83,0,.78-.78.78-2.05,0-2.83l-4.12-4.12Z"/>
  <path class="st0" d="M51.35,27.75c.78.78,2.05.78,2.83,0,.78-.78.78-2.05,0-2.83l-4.13-4.12c-.78-.78-2.05-.78-2.83,0-.78.78-.78,2.05,0,2.83l4.13,4.12Z"/>
</svg>